<?xml version="1.0" encoding="utf-8"?>
<!-- Generator: Adobe Illustrator 18.0.0, SVG Export Plug-In . SVG Version: 6.00 Build 0)  -->
<!DOCTYPE svg PUBLIC "-//W3C//DTD SVG 1.1//EN" "http://www.w3.org/Graphics/SVG/1.1/DTD/svg11.dtd">
<svg version="1.1" id="Слой_1" xmlns="http://www.w3.org/2000/svg" xmlns:xlink="http://www.w3.org/1999/xlink" x="0px" y="0px"
	 viewBox="0 0 30 30" enable-background="new 0 0 30 30" xml:space="preserve">
<path fill-rule="evenodd" clip-rule="evenodd" fill="#9BD6CD" d="M30,24c0,0.7-0.4,1.2-1,1.4v1.7c0.6,0.2,1,0.8,1,1.4
	c0,0.8-0.7,1.5-1.5,1.5c-0.7,0-1.2-0.4-1.4-1h-1.7c-0.2,0.6-0.8,1-1.4,1c-0.7,0-1.2-0.4-1.4-1h-1.7c-0.2,0.6-0.8,1-1.4,1
	c-0.7,0-1.2-0.4-1.4-1h-1.7c-0.2,0.6-0.8,1-1.4,1c-0.7,0-1.2-0.4-1.4-1h-1.7c-0.2,0.6-0.8,1-1.4,1c-0.7,0-1.2-0.4-1.4-1H7.4
	c-0.2,0.6-0.8,1-1.4,1c-0.7,0-1.2-0.4-1.4-1H2.9c-0.2,0.6-0.8,1-1.4,1C0.7,30,0,29.3,0,28.5c0-0.7,0.4-1.2,1-1.4v-1.7
	c-0.6-0.2-1-0.8-1-1.4c0-0.7,0.4-1.2,1-1.4v-1.7c-0.6-0.2-1-0.8-1-1.4c0-0.7,0.4-1.2,1-1.4v-1.7c-0.6-0.2-1-0.8-1-1.4
	c0-0.7,0.4-1.2,1-1.4v-1.7c-0.6-0.2-1-0.8-1-1.4c0-0.7,0.4-1.2,1-1.4V7.4C0.4,7.2,0,6.7,0,6c0-0.7,0.4-1.2,1-1.4V2.9
	C0.4,2.7,0,2.2,0,1.5C0,0.7,0.7,0,1.5,0c0.7,0,1.2,0.4,1.4,1h1.7C4.8,0.4,5.3,0,6,0c0.7,0,1.2,0.4,1.4,1h1.7c0.2-0.6,0.8-1,1.4-1
	c0.7,0,1.2,0.4,1.4,1h1.7c0.2-0.6,0.8-1,1.4-1c0.7,0,1.2,0.4,1.4,1h1.7c0.2-0.6,0.8-1,1.4-1c0.7,0,1.2,0.4,1.4,1h1.7
	c0.2-0.6,0.8-1,1.4-1c0.7,0,1.2,0.4,1.4,1h1.7c0.2-0.6,0.8-1,1.4-1C29.3,0,30,0.7,30,1.5c0,0.7-0.4,1.2-1,1.4v1.7
	c0.6,0.2,1,0.8,1,1.4c0,0.7-0.4,1.2-1,1.4v1.7c0.6,0.2,1,0.8,1,1.4c0,0.7-0.4,1.2-1,1.4v1.7c0.6,0.2,1,0.8,1,1.4
	c0,0.7-0.4,1.2-1,1.4v1.7c0.6,0.2,1,0.8,1,1.4c0,0.7-0.4,1.2-1,1.4v1.7C29.6,22.8,30,23.3,30,24z M26,4H4v22h22V4z M13,20l7-8.5
	l4.5,7v6h-19l6-6L13,20z M10,13c-1.7,0-3-1.3-3-3c0-1.7,1.3-3,3-3c1.7,0,3,1.3,3,3C13,11.7,11.7,13,10,13z"/>
</svg>
