<?xml version="1.0" encoding="utf-8"?>
<!-- Generator: Adobe Illustrator 16.0.0, SVG Export Plug-In . SVG Version: 6.00 Build 0)  -->
<!DOCTYPE svg PUBLIC "-//W3C//DTD SVG 1.1//EN" "http://www.w3.org/Graphics/SVG/1.1/DTD/svg11.dtd">
<svg version="1.1" id="Слой_1" xmlns="http://www.w3.org/2000/svg" xmlns:xlink="http://www.w3.org/1999/xlink" x="0px" y="0px"
	 width="32px" height="30.5px" viewBox="0 0 32 30.5" enable-background="new 0 0 32 30.5" xml:space="preserve">
<path fill-rule="evenodd" clip-rule="evenodd" fill="#9BD6CE" d="M30.74,9.502c-1.584-3.696-4.547-6.659-8.242-8.242
	C23.496,0.474,24.755,0,26.125,0C29.37,0,32,2.63,32,5.875C32,7.245,31.526,8.502,30.74,9.502z M30.5,16
	c0,3.852-1.512,7.344-3.963,9.94l2.028,2.028C28.834,28.236,29,28.607,29,29.018c0,0.818-0.664,1.482-1.482,1.482
	c-0.41,0-0.781-0.166-1.049-0.434l-2.18-2.18C21.939,29.529,19.085,30.5,16,30.5c-3.079,0-5.928-0.967-8.276-2.604l-2.164,2.164
	C5.289,30.332,4.914,30.5,4.5,30.5C3.671,30.5,3,29.828,3,29c0-0.414,0.168-0.789,0.439-1.061l2.012-2.012
	C3.008,23.332,1.5,19.846,1.5,16C1.5,7.992,7.992,1.5,16,1.5C24.008,1.5,30.5,7.992,30.5,16z M16,4.5C9.648,4.5,4.5,9.648,4.5,16
	S9.648,27.5,16,27.5S27.5,22.352,27.5,16S22.352,4.5,16,4.5z M22,17.5h-6c-0.829,0-1.5-0.672-1.5-1.5V8c0-0.828,0.671-1.5,1.5-1.5
	s1.5,0.672,1.5,1.5v6.5H22c0.828,0,1.5,0.672,1.5,1.5C23.5,16.828,22.828,17.5,22,17.5z M1.287,9.706C0.483,8.685,0,7.4,0,6
	c0-3.314,2.687-6,6-6c1.4,0,2.685,0.483,3.706,1.288C5.931,2.904,2.904,5.931,1.287,9.706z"/>
</svg>
