<?xml version="1.0" encoding="utf-8"?>
<!-- Generator: Adobe Illustrator 18.0.0, SVG Export Plug-In . SVG Version: 6.00 Build 0)  -->
<!DOCTYPE svg PUBLIC "-//W3C//DTD SVG 1.1//EN" "http://www.w3.org/Graphics/SVG/1.1/DTD/svg11.dtd">
<svg version="1.1" id="Слой_1" xmlns="http://www.w3.org/2000/svg" xmlns:xlink="http://www.w3.org/1999/xlink" x="0px" y="0px"
	 viewBox="0 0 63 61" enable-background="new 0 0 63 61" xml:space="preserve">
<path fill-rule="evenodd" clip-rule="evenodd" fill="#9BD6CD" d="M60,36h-0.9l0,0H58v5l0,0c0,0.2,0,0.4-0.1,0.6
	c0,0.1-0.1,0.3-0.1,0.4c0,0.1,0,0.1-0.1,0.2c0,0.1-0.1,0.2-0.2,0.3c0,0.1-0.1,0.1-0.1,0.2c-0.1,0.1-0.2,0.3-0.3,0.4c0,0,0,0,0,0
	C56.6,43.7,55.9,44,55,44c0,0,0,0,0,0l0,0l0,0c-0.8,0-1.6-0.3-2.1-0.9L45.8,36h-0.4l0,0H18c-1.7,0-3-1.3-3-3V3c0-1.7,1.3-3,3-3h42
	c1.7,0,3,1.3,3,3v30C63,34.7,61.7,36,60,36z M44.5,39l6.3,6.3l0,0c1.1,1,2.5,1.7,4.2,1.7v2c0,1.7-1.3,3-3,3l0,0H30.9l0,0H24l0,0h-3
	l0,0h-0.8l-8.1,8.1C11.6,60.7,10.8,61,10,61l0,0l0,0c0,0,0,0,0,0c-0.8,0-1.5-0.3-2.1-0.9c0,0,0,0,0,0c-0.1-0.1-0.2-0.3-0.3-0.4
	c0-0.1-0.1-0.1-0.1-0.2c-0.1-0.1-0.1-0.2-0.2-0.3c0-0.1,0-0.1-0.1-0.2c0-0.1-0.1-0.3-0.1-0.4C7,58.4,7,58.2,7,58l0,0v-6H6.5l0,0H3
	c-1.7,0-3-1.3-3-3V15c0,0,0,0,0,0c0-1.7,1.3-3,3-3h9v21c0,3.3,2.7,6,6,6H44.5z"/>
</svg>
