<?xml version="1.0" encoding="utf-8"?>
<!-- Generator: Adobe Illustrator 18.0.0, SVG Export Plug-In . SVG Version: 6.00 Build 0)  -->
<!DOCTYPE svg PUBLIC "-//W3C//DTD SVG 1.1//EN" "http://www.w3.org/Graphics/SVG/1.1/DTD/svg11.dtd">
<svg version="1.1" id="Слой_1" xmlns="http://www.w3.org/2000/svg" xmlns:xlink="http://www.w3.org/1999/xlink" x="0px" y="0px"
	 viewBox="0 0 12 25.6" enable-background="new 0 0 12 25.6" xml:space="preserve">
<path fill-rule="evenodd" clip-rule="evenodd" fill="#FFFFFF" d="M12,0c0,1.5,0,4.1,0,4.1S8.9,3.8,8.2,5C7.8,5.6,8,7.5,8,8.8
	c1.3,0,2.7,0,4,0c-0.3,1.6-0.6,2.6-0.8,4c-1.1,0-3.2,0-3.2,0v12.8c0,0-3.8,0-5.6,0c0-3.9,0-8.6,0-12.8c-0.9,0-1.5,0-2.4,0
	c0-1.5,0-2.6,0-4c0.8,0,1.5,0,2.3,0C2.5,5.9,2.5,3,4,1.5C5.6-0.2,7.2,0,12,0z"/>
</svg>
