<?xml version="1.0" encoding="utf-8"?>
<!-- Generator: Adobe Illustrator 18.0.0, SVG Export Plug-In . SVG Version: 6.00 Build 0)  -->
<!DOCTYPE svg PUBLIC "-//W3C//DTD SVG 1.1//EN" "http://www.w3.org/Graphics/SVG/1.1/DTD/svg11.dtd">
<svg version="1.1" id="Слой_1" xmlns="http://www.w3.org/2000/svg" xmlns:xlink="http://www.w3.org/1999/xlink" x="0px" y="0px"
	 viewBox="0 0 19.6 25.7" enable-background="new 0 0 19.6 25.7" xml:space="preserve">
<path fill-rule="evenodd" clip-rule="evenodd" fill="#FFFFFF" d="M8.2,16.7c-0.2,0.8-0.4,1.7-0.6,2.6c-0.2,0.8-0.4,1.7-0.7,2.5
	c-0.5,1.3-1.2,2.5-2,3.5c-0.6,0.7-0.5,0.4-0.6,0.4C4,25.5,4,25.4,4,25.2c-0.1-1,0-2.2,0-3.3c0.1-1.3,0.3-2.4,0.6-3.5
	C5,16.4,5.5,14.3,6,12.3c0-0.1,0.1-0.4,0.1-0.4c-0.2-0.6-0.4-1.1-0.4-1.7c-0.1-0.7,0-1.3,0.1-1.9c0.3-1.1,0.9-2,1.9-2.3
	C8.3,5.6,9,5.7,9.4,6c0.4,0.3,0.7,0.7,0.9,1.2c0.1,0.6,0,1.4-0.1,1.9c-0.3,1.2-0.6,2.1-0.9,3.3c-0.2,0.6-0.3,1.2-0.2,1.8
	c0.1,0.6,0.4,1,0.8,1.3c0.4,0.3,0.9,0.5,1.6,0.5c1.2,0,2.1-0.8,2.7-1.6c0.9-1.2,1.5-2.8,1.7-4.7c0.1-0.6,0.1-1.3,0.1-2
	c-0.1-1.3-0.5-2.3-1.1-3.1c-0.6-0.8-1.5-1.4-2.5-1.7c-1-0.3-2.5-0.5-3.7-0.2C6.2,3,4.6,4.3,3.6,6.2c-0.5,1-0.8,2-0.8,3.4
	c0,1.1,0.3,1.9,0.7,2.5c0.1,0.2,0.3,0.4,0.5,0.6c0.2,0.3,0,0.8-0.1,1.2c-0.1,0.4-0.1,1-0.6,1c-0.2,0-0.5-0.1-0.6-0.2
	c-1.3-0.7-2.1-2-2.4-3.7C0,9.8,0,8.6,0.1,7.6c0.2-1,0.5-1.9,0.9-2.6c0.8-1.5,2-2.7,3.5-3.6c1.1-0.7,2.4-1.1,3.9-1.3
	C9,0.1,9.5,0,10.1,0c1.7-0.1,3.2,0.3,4.3,0.8c1.2,0.5,2.2,1.3,3,2.1c0.8,0.9,1.4,2,1.8,3.3c0.2,0.7,0.4,1.4,0.4,2.3
	c0,0.9-0.2,1.6-0.3,2.4c-0.5,2.8-1.8,5.1-3.8,6.5c-0.5,0.3-1.1,0.6-1.8,0.8c-0.7,0.2-1.4,0.3-2.2,0.3c-0.8-0.1-1.4-0.3-2-0.6
	C8.9,17.6,8.5,17.2,8.2,16.7z"/>
</svg>
