<?xml version="1.0" encoding="utf-8"?>
<!-- Generator: Adobe Illustrator 16.0.0, SVG Export Plug-In . SVG Version: 6.00 Build 0)  -->
<!DOCTYPE svg PUBLIC "-//W3C//DTD SVG 1.1//EN" "http://www.w3.org/Graphics/SVG/1.1/DTD/svg11.dtd">
<svg version="1.1" id="Слой_1" xmlns="http://www.w3.org/2000/svg" xmlns:xlink="http://www.w3.org/1999/xlink" x="0px" y="0px"
	 width="32px" height="32px" viewBox="0 0 32 32" enable-background="new 0 0 32 32" xml:space="preserve">
<path fill-rule="evenodd" clip-rule="evenodd" fill="#9BD6CE" d="M30.5,32h-29C0.672,32,0,31.328,0,30.5v-29C0,0.671,0.672,0,1.5,0
	h29C31.328,0,32,0.671,32,1.5v29C32,31.328,31.328,32,30.5,32z M29,3H3v26h26V3z M6.5,4.5H12l0,0c0.828,0,1.5,0.672,1.5,1.5
	c0,0.829-0.672,1.5-1.5,1.5l0,0H7.5V12l0,0c0,0.828-0.672,1.5-1.5,1.5S4.5,12.828,4.5,12l0,0V6.5l0,0v-2H6.5L6.5,4.5z M4.5,20
	L4.5,20c0-0.828,0.672-1.5,1.5-1.5s1.5,0.672,1.5,1.5l0,0v4.5H12l0,0c0.828,0,1.5,0.672,1.5,1.5s-0.672,1.5-1.5,1.5l0,0H6.5l0,0h-2
	v-2l0,0V20z M20,4.5L20,4.5h5.5l0,0h2v2l0,0V12l0,0c0,0.828-0.672,1.5-1.5,1.5s-1.5-0.672-1.5-1.5l0,0V7.5H20l0,0
	c-0.828,0-1.5-0.67-1.5-1.5C18.5,5.171,19.172,4.5,20,4.5z M20,24.5L20,24.5h4.5V20l0,0c0-0.828,0.672-1.5,1.5-1.5
	s1.5,0.672,1.5,1.5l0,0v5.5l0,0v2h-2l0,0H20l0,0c-0.828,0-1.5-0.672-1.5-1.5S19.172,24.5,20,24.5z"/>
</svg>
