<?xml version="1.0" encoding="utf-8"?>
<!-- Generator: Adobe Illustrator 16.0.0, SVG Export Plug-In . SVG Version: 6.00 Build 0)  -->
<!DOCTYPE svg PUBLIC "-//W3C//DTD SVG 1.1//EN" "http://www.w3.org/Graphics/SVG/1.1/DTD/svg11.dtd">
<svg version="1.1" id="Слой_1" xmlns="http://www.w3.org/2000/svg" xmlns:xlink="http://www.w3.org/1999/xlink" x="0px" y="0px"
	 width="31px" height="28px" viewBox="0 0 31 28" enable-background="new 0 0 31 28" xml:space="preserve">
<path fill-rule="evenodd" clip-rule="evenodd" fill="#9BD6CE" d="M29.5,23H22h-2v2.5l2,2V28H9v-0.5l2-2V23H9H1.5
	C0.672,23,0,22.328,0,21.5v-20C0,0.671,0.672,0,1.5,0h28C30.328,0,31,0.671,31,1.5v20C31,22.328,30.328,23,29.5,23z M29,2H2v17h27V2
	z M12.5,9c0.414,0,0.789,0.168,1.061,0.439l0,0l0.939,0.939l2.939-2.939l0,0C17.711,7.167,18.086,7,18.5,7C19.328,7,20,7.671,20,8.5
	c0,0.414-0.168,0.789-0.439,1.061l0,0l-4,4l0,0C15.289,13.832,14.914,14,14.5,14s-0.789-0.168-1.061-0.439l0,0l-2-2.001l0,0
	C11.168,11.29,11,10.914,11,10.5C11,9.671,11.672,9,12.5,9z"/>
</svg>
