<?xml version="1.0" encoding="utf-8"?>
<!-- Generator: Adobe Illustrator 16.0.0, SVG Export Plug-In . SVG Version: 6.00 Build 0)  -->
<!DOCTYPE svg PUBLIC "-//W3C//DTD SVG 1.1//EN" "http://www.w3.org/Graphics/SVG/1.1/DTD/svg11.dtd">
<svg version="1.1" id="Слой_1" xmlns="http://www.w3.org/2000/svg" xmlns:xlink="http://www.w3.org/1999/xlink" x="0px" y="0px"
	 width="31.951px" height="22.522px" viewBox="0 0 31.951 22.522" enable-background="new 0 0 31.951 22.522" xml:space="preserve">
<path fill-rule="evenodd" clip-rule="evenodd" fill="#FFFFFF" d="M31.95,21.527c0,0.001,0.001,0.003,0.001,0.003
	c0,0.548-0.446,0.992-0.995,0.992h-7.412c0.556-0.123,0.972-0.614,0.972-1.206c0-0.001-0.001-0.001-0.001-0.002h0.002
	c0,0,0-4.504-3.303-6.142c-1.41-0.7-1.504-0.566-2.205-0.732l0.02-1.95c0,0-0.771-0.587-1.01-2.431
	c-0.482,0.14-0.642-0.563-0.67-1.012c-0.026-0.432-0.279-1.783,0.309-1.661c-0.12-0.902-0.207-1.715-0.164-2.146
	c0.147-1.514,1.609-3.094,3.861-3.208c2.648,0.114,3.697,1.694,3.845,3.207c0.043,0.431-0.052,1.245-0.172,2.146
	c0.589-0.12,0.333,1.228,0.304,1.661c-0.025,0.447-0.188,1.148-0.67,1.009c-0.24,1.844-1.011,2.426-1.011,2.426l0.019,1.948
	c0,0,0.486,0.277,2.545,1.126c2.058,0.852,1.412,0.216,3.089,1.046C31.951,17.914,31.951,21.527,31.95,21.527L31.95,21.527z
	 M17.023,14.865c2.262,0.935,1.553,0.234,3.395,1.149c2.912,1.443,2.912,5.416,2.912,5.416H23.33c0,0,0.001,0,0.001,0.002
	c0,0.602-0.49,1.09-1.094,1.09H1.094C0.49,22.522,0,22.034,0,21.433c0-0.002,0-0.002,0-0.002h0c0,0,0-3.973,2.912-5.417
	c1.843-0.914,1.133-0.172,3.395-1.106c2.262-0.934,2.798-1.26,2.798-1.26l0.021-2.152c0,0-0.847-0.646-1.11-2.671
	c-0.53,0.153-0.706-0.62-0.737-1.113C7.25,7.236,6.972,5.752,7.619,5.886C7.487,4.895,7.392,4.001,7.438,3.527
	C7.601,1.864,9.207,0.127,11.682,0c2.912,0.126,4.065,1.863,4.227,3.524c0.047,0.475-0.057,1.369-0.189,2.359
	c0.647-0.132,0.366,1.35,0.334,1.825c-0.028,0.492-0.208,1.262-0.736,1.11c-0.264,2.024-1.111,2.665-1.111,2.665l0.02,2.142
	C14.226,13.626,14.762,13.931,17.023,14.865z"/>
</svg>
