<?xml version="1.0" encoding="utf-8"?>
<!-- Generator: Adobe Illustrator 18.0.0, SVG Export Plug-In . SVG Version: 6.00 Build 0)  -->
<!DOCTYPE svg PUBLIC "-//W3C//DTD SVG 1.1//EN" "http://www.w3.org/Graphics/SVG/1.1/DTD/svg11.dtd">
<svg version="1.1" id="Слой_1" xmlns="http://www.w3.org/2000/svg" xmlns:xlink="http://www.w3.org/1999/xlink" x="0px" y="0px"
	 viewBox="0 0 12 21" enable-background="new 0 0 12 21" xml:space="preserve">
<path fill-rule="evenodd" clip-rule="evenodd" fill="#CCCCCC" d="M0,1.5C0,0.7,0.7,0,1.5,0c0.4,0,0.8,0.2,1,0.4l0,0l9,9l0,0
	c0.3,0.3,0.5,0.7,0.5,1.1c0,0,0,0,0,0c0,0,0,0,0,0c0,0.4-0.2,0.8-0.5,1.1l0,0l-9,9v0c-0.3,0.3-0.6,0.4-1,0.4C0.7,21,0,20.3,0,19.5
	c0-0.4,0.2-0.8,0.4-1l0,0l8-8L0.5,2.6C0.2,2.4,0,2,0,1.5z"/>
</svg>
