<?xml version="1.0" encoding="utf-8"?>
<!-- Generator: Adobe Illustrator 18.0.0, SVG Export Plug-In . SVG Version: 6.00 Build 0)  -->
<!DOCTYPE svg PUBLIC "-//W3C//DTD SVG 1.1//EN" "http://www.w3.org/Graphics/SVG/1.1/DTD/svg11.dtd">
<svg version="1.1" id="Слой_1" xmlns="http://www.w3.org/2000/svg" xmlns:xlink="http://www.w3.org/1999/xlink" x="0px" y="0px"
	 viewBox="0 0 16 13" enable-background="new 0 0 16 13" xml:space="preserve">
<path fill-rule="evenodd" clip-rule="evenodd" fill="#9BD6CD" d="M10.9,0c1.3,0,1.9,0.4,2.6,1c0.5,0,1.3-0.4,1.7-0.6
	c0.1-0.1,0.3-0.1,0.4-0.2c-0.2,0.6-0.6,1.2-1.1,1.5C14.4,1.9,14.3,2,14.1,2c0,0,0,0,0,0c0.7,0,1.3-0.3,1.9-0.5c0,0,0,0,0,0
	c-0.3,0.5-0.7,0.9-1.1,1.3c-0.2,0.1-0.3,0.3-0.5,0.4c0,0.8,0,1.5-0.2,2.1c-0.8,3.7-3,6.2-6.4,7.3c-1.2,0.4-3.2,0.5-4.6,0.2
	c-0.7-0.2-1.3-0.4-1.9-0.6c-0.3-0.1-0.6-0.3-0.9-0.5c-0.1-0.1-0.2-0.1-0.3-0.2c0.3,0,0.7,0.1,1,0c0.3-0.1,0.6,0,0.9-0.1
	c0.7-0.2,1.4-0.4,2-0.7c0.3-0.2,0.7-0.3,0.9-0.6c-0.4,0-0.7-0.1-1-0.2C2.8,9.6,2.2,8.9,1.8,7.9C2.1,7.9,3,8,3.3,7.8
	c-0.4,0-0.8-0.3-1.1-0.4C1.3,6.8,0.6,5.9,0.6,4.6C0.7,4.6,0.9,4.7,1,4.7c0.2,0.1,0.4,0.1,0.7,0.2C1.8,4.9,2,5,2.1,5c0,0,0,0,0,0
	C1.9,4.8,1.7,4.6,1.5,4.4c-0.5-0.7-1.1-1.7-0.7-3C0.8,1.1,1,0.9,1.1,0.6c0,0,0,0,0,0C1.2,0.7,1.3,0.8,1.4,1c0.3,0.3,0.6,0.7,1,0.9
	c1.2,0.9,2.3,1.5,4,1.9C6.8,3.9,7.4,4,7.9,4c-0.1-0.4-0.1-1.1,0-1.5c0.3-1,0.9-1.8,1.9-2.2C10,0.2,10.2,0.1,10.5,0
	C10.6,0,10.7,0,10.9,0z"/>
</svg>
