<?xml version="1.0" encoding="utf-8"?>
<!-- Generator: Adobe Illustrator 18.0.0, SVG Export Plug-In . SVG Version: 6.00 Build 0)  -->
<!DOCTYPE svg PUBLIC "-//W3C//DTD SVG 1.1//EN" "http://www.w3.org/Graphics/SVG/1.1/DTD/svg11.dtd">
<svg version="1.1" id="Слой_1" xmlns="http://www.w3.org/2000/svg" xmlns:xlink="http://www.w3.org/1999/xlink" x="0px" y="0px"
	 viewBox="0 0 25.6 25.6" enable-background="new 0 0 25.6 25.6" xml:space="preserve">
<path fill-rule="evenodd" clip-rule="evenodd" fill="#FFFFFF" d="M22.4,25.6H3.2c-1.8,0-3.2-1.4-3.2-3.2V3.2C0,1.4,1.4,0,3.2,0h19.2
	c1.8,0,3.2,1.4,3.2,3.2v19.2C25.6,24.2,24.2,25.6,22.4,25.6z M12.8,7.8c-2,0-3.7,1.2-4.5,2.9h0c0,0,0,0,0,0.1c0,0.1-0.1,0.2-0.1,0.3
	c0,0.1,0,0.1-0.1,0.2c0,0.1-0.1,0.2-0.1,0.3c0,0.1,0,0.1,0,0.2c0,0.1,0,0.2-0.1,0.4c0,0.1,0,0.1,0,0.1c0,0.2,0,0.4,0,0.5
	c0,2.7,2.2,5,5,5c2.7,0,5-2.2,5-5c0-0.2,0-0.4,0-0.5c0-0.1,0-0.1,0-0.1c0-0.1,0-0.2-0.1-0.4c0-0.1,0-0.1,0-0.2
	c0-0.1-0.1-0.2-0.1-0.3c0-0.1,0-0.1-0.1-0.2c0-0.1-0.1-0.2-0.1-0.3c0,0,0,0,0-0.1h0C16.5,9,14.8,7.8,12.8,7.8z M22.7,4.2
	c0-0.7-0.6-1.3-1.3-1.3h-2.6c-0.7,0-1.3,0.6-1.3,1.3v2.6c0,0.7,0.6,1.3,1.3,1.3h2.6c0.7,0,1.3-0.6,1.3-1.3V4.2z M22.7,10.7h-2.4
	c0.2,0.7,0.3,1.4,0.3,2.1c0,4.3-3.5,7.8-7.8,7.8c-4.3,0-7.8-3.5-7.8-7.8c0-0.7,0.1-1.4,0.3-2.1H2.9v10.7c0,0.7,0.6,1.3,1.3,1.3h17.3
	c0.7,0,1.3-0.6,1.3-1.3V10.7z"/>
</svg>
