<?xml version="1.0" encoding="utf-8"?>
<!-- Generator: Adobe Illustrator 16.0.0, SVG Export Plug-In . SVG Version: 6.00 Build 0)  -->
<!DOCTYPE svg PUBLIC "-//W3C//DTD SVG 1.1//EN" "http://www.w3.org/Graphics/SVG/1.1/DTD/svg11.dtd">
<svg version="1.1" id="Слой_1" xmlns="http://www.w3.org/2000/svg" xmlns:xlink="http://www.w3.org/1999/xlink" x="0px" y="0px"
	 width="32px" height="30.5px" viewBox="0 0 32 30.5" enable-background="new 0 0 32 30.5" xml:space="preserve">
<path fill-rule="evenodd" clip-rule="evenodd" fill="#9BD6CE" d="M32,16c0,0.828-0.672,1.5-1.5,1.5c-0.395,0-0.752-0.156-1.02-0.405
	l-0.004,0.003L16.038,3.66v0L16,3.623V3.622L2.554,17.069h0C2.282,17.336,1.91,17.5,1.5,17.5C0.671,17.5,0,16.829,0,16
	c0-0.425,0.177-0.809,0.461-1.082L14.919,0.46C15.192,0.177,15.575,0,16,0l0,0l0,0h0c0.027,0,0.053,0,0.079,0.003
	c0.004,0,0.008,0,0.013,0c0.022,0.002,0.045,0.004,0.067,0.006c0.001,0,0.003,0,0.004,0c0.367,0.04,0.694,0.213,0.933,0.468l0-0.001
	L23,6.379V5c0-0.829,0.672-1.5,1.5-1.5S26,4.172,26,5v4.378l5.598,5.599l-0.004,0.003C31.844,15.248,32,15.605,32,16z M29,18.5V23v2
	v4c0,0.828-0.672,1.5-1.5,1.5h-3v-12h-6v12h-14C3.671,30.5,3,29.829,3,29v-4v-2v-4.5l13-13L29,18.5z M13.5,18.5h-6v6h6V18.5z"/>
</svg>
