<?xml version="1.0" encoding="utf-8"?>
<!-- Generator: Adobe Illustrator 18.0.0, SVG Export Plug-In . SVG Version: 6.00 Build 0)  -->
<!DOCTYPE svg PUBLIC "-//W3C//DTD SVG 1.1//EN" "http://www.w3.org/Graphics/SVG/1.1/DTD/svg11.dtd">
<svg version="1.1" id="Слой_1" xmlns="http://www.w3.org/2000/svg" xmlns:xlink="http://www.w3.org/1999/xlink" x="0px" y="0px"
	 viewBox="0 0 19.4 11.2" enable-background="new 0 0 19.4 11.2" xml:space="preserve">
<path fill-rule="evenodd" clip-rule="evenodd" fill="#9BD6CD" d="M19.4,5.7C19.4,5.7,19.4,5.7,19.4,5.7C19.4,5.7,19.4,5.7,19.4,5.7
	C19.4,5.7,19.4,5.7,19.4,5.7C19.4,5.7,19.4,5.7,19.4,5.7C19.4,5.7,19.4,5.7,19.4,5.7c0,0.2-0.1,0.4-0.2,0.5
	c-0.2,0.2-0.4,0.5-0.7,0.7C17.4,8.1,16,9.2,14.5,10c-1,0.5-2,0.9-3.1,1.1C10.2,11.3,9,11.3,7.8,11c-2-0.4-3.9-1.5-5.5-2.9
	c-0.8-0.6-1.5-1.3-2.1-2c-0.3-0.3-0.3-0.7,0-1c0.2-0.2,0.4-0.5,0.7-0.7C2.1,3.2,3.5,2.1,5,1.3c1-0.5,2-0.9,3.1-1.1
	c1.2-0.2,2.4-0.2,3.6,0.1c2,0.4,3.9,1.5,5.5,2.9c0.8,0.6,1.5,1.3,2.1,2c0.1,0.1,0.2,0.3,0.2,0.4c0,0,0,0,0,0c0,0,0,0,0,0
	c0,0,0,0,0,0C19.4,5.6,19.4,5.6,19.4,5.7C19.4,5.6,19.4,5.6,19.4,5.7C19.4,5.6,19.4,5.6,19.4,5.7C19.4,5.6,19.4,5.6,19.4,5.7z
	 M9.7,1.8c-2,0-3.6,1.6-3.6,3.6c0,2,1.6,3.6,3.6,3.6c2,0,3.6-1.6,3.6-3.6C13.4,3.5,11.7,1.8,9.7,1.8z M9.7,7.3c-1,0-1.8-0.8-1.8-1.8
	s0.8-1.8,1.8-1.8s1.8,0.8,1.8,1.8S10.7,7.3,9.7,7.3z"/>
</svg>
