<?xml version="1.0" encoding="utf-8"?>
<!-- Generator: Adobe Illustrator 18.0.0, SVG Export Plug-In . SVG Version: 6.00 Build 0)  -->
<!DOCTYPE svg PUBLIC "-//W3C//DTD SVG 1.1//EN" "http://www.w3.org/Graphics/SVG/1.1/DTD/svg11.dtd">
<svg version="1.1" id="Слой_1" xmlns="http://www.w3.org/2000/svg" xmlns:xlink="http://www.w3.org/1999/xlink" x="0px" y="0px"
	 viewBox="0 0 32 32" enable-background="new 0 0 32 32" xml:space="preserve">
<path fill-rule="evenodd" clip-rule="evenodd" fill="#9BD6CD" d="M16,32C7.2,32,0,24.8,0,16C0,7.2,7.2,0,16,0s16,7.2,16,16
	C32,24.8,24.8,32,16,32z M16,3C8.8,3,3,8.8,3,16s5.8,13,13,13s13-5.8,13-13S23.2,3,16,3z M16,25.5c-5.2,0-9.5-4.3-9.5-9.5
	c0-5.2,4.3-9.5,9.5-9.5c5.2,0,9.5,4.3,9.5,9.5C25.5,21.2,21.2,25.5,16,25.5z M16,9.5c-3.6,0-6.5,2.9-6.5,6.5s2.9,6.5,6.5,6.5
	c3.6,0,6.5-2.9,6.5-6.5S19.6,9.5,16,9.5z M16,19c-1.7,0-3-1.3-3-3c0-1.7,1.3-3,3-3s3,1.3,3,3C19,17.7,17.7,19,16,19z"/>
</svg>
