<?xml version="1.0" encoding="utf-8"?>
<!-- Generator: Adobe Illustrator 18.0.0, SVG Export Plug-In . SVG Version: 6.00 Build 0)  -->
<!DOCTYPE svg PUBLIC "-//W3C//DTD SVG 1.1//EN" "http://www.w3.org/Graphics/SVG/1.1/DTD/svg11.dtd">
<svg version="1.1" id="Слой_1" xmlns="http://www.w3.org/2000/svg" xmlns:xlink="http://www.w3.org/1999/xlink" x="0px" y="0px"
	 viewBox="0 0 12.2 16" enable-background="new 0 0 12.2 16" xml:space="preserve">
<path fill-rule="evenodd" clip-rule="evenodd" fill="#9BD6CD" d="M5.1,10.4C5,10.9,4.8,11.5,4.7,12c-0.1,0.5-0.3,1.1-0.4,1.5
	c-0.3,0.8-0.7,1.6-1.3,2.2C2.6,16.2,2.7,16,2.6,16c-0.1,0-0.1-0.1-0.1-0.2c-0.1-0.6,0-1.4,0-2.1c0-0.8,0.2-1.5,0.4-2.2
	C3.1,10.2,3.4,9,3.7,7.7c0-0.1,0.1-0.2,0.1-0.3C3.7,7,3.6,6.7,3.5,6.3c0-0.4,0-0.8,0.1-1.2c0.2-0.7,0.6-1.2,1.2-1.5
	c0.4-0.1,0.8-0.1,1.1,0.1c0.3,0.2,0.5,0.4,0.5,0.8c0.1,0.4,0,0.8,0,1.2C6.2,6.4,6,7,5.8,7.8C5.7,8.1,5.6,8.5,5.7,8.9
	c0.1,0.4,0.3,0.6,0.5,0.8c0.3,0.2,0.6,0.3,1,0.3c0.8,0,1.3-0.5,1.7-1c0.6-0.7,0.9-1.7,1-2.9c0-0.4,0.1-0.8,0-1.3
	C9.9,4,9.7,3.4,9.3,2.9C8.9,2.4,8.3,2,7.7,1.8C7,1.6,6.1,1.5,5.4,1.6C3.9,1.9,2.9,2.7,2.3,3.8C2,4.4,1.8,5.1,1.8,6
	c0,0.7,0.2,1.2,0.4,1.6c0.1,0.1,0.2,0.2,0.3,0.4c0.1,0.2,0,0.5-0.1,0.7C2.3,8.9,2.3,9.3,2,9.3c-0.1,0-0.3-0.1-0.4-0.2
	C0.8,8.7,0.3,7.9,0.1,6.8C0,6.1,0,5.4,0.1,4.8c0.1-0.6,0.3-1.2,0.6-1.6c0.5-0.9,1.3-1.7,2.2-2.2c0.7-0.4,1.5-0.7,2.4-0.8
	C5.6,0,5.9,0,6.3,0c1,0,2,0.2,2.7,0.5c0.8,0.3,1.4,0.8,1.9,1.3c0.5,0.6,0.9,1.2,1.1,2.1c0.1,0.4,0.2,0.9,0.2,1.4
	c0,0.5-0.1,1-0.2,1.5c-0.3,1.8-1.1,3.2-2.4,4c-0.3,0.2-0.7,0.4-1.1,0.5c-0.4,0.1-0.9,0.2-1.4,0.2c-0.5,0-0.9-0.2-1.2-0.4
	C5.6,11,5.3,10.8,5.1,10.4z"/>
</svg>
