<?xml version="1.0" encoding="utf-8"?>
<!-- Generator: Adobe Illustrator 18.0.0, SVG Export Plug-In . SVG Version: 6.00 Build 0)  -->
<!DOCTYPE svg PUBLIC "-//W3C//DTD SVG 1.1//EN" "http://www.w3.org/Graphics/SVG/1.1/DTD/svg11.dtd">
<svg version="1.1" id="Слой_1" xmlns="http://www.w3.org/2000/svg" xmlns:xlink="http://www.w3.org/1999/xlink" x="0px" y="0px"
	 viewBox="0 0 21 12" enable-background="new 0 0 21 12" xml:space="preserve">
<path fill-rule="evenodd" clip-rule="evenodd" fill="#CCCCCC" d="M2.6,0.5l7.9,7.9l8-8l0,0c0.3-0.3,0.6-0.4,1-0.4
	C20.3,0,21,0.7,21,1.5c0,0.4-0.2,0.8-0.4,1h0l-9,9l0,0c-0.3,0.3-0.7,0.5-1.1,0.5c0,0,0,0,0,0c0,0,0,0,0,0c-0.4,0-0.8-0.2-1.1-0.5
	l0,0l-9-9l0,0C0.2,2.3,0,1.9,0,1.5C0,0.7,0.7,0,1.5,0C2,0,2.4,0.2,2.6,0.5z"/>
</svg>
