<?xml version="1.0" encoding="utf-8"?>
<!-- Generator: Adobe Illustrator 18.0.0, SVG Export Plug-In . SVG Version: 6.00 Build 0)  -->
<!DOCTYPE svg PUBLIC "-//W3C//DTD SVG 1.1//EN" "http://www.w3.org/Graphics/SVG/1.1/DTD/svg11.dtd">
<svg version="1.1" id="Слой_1" xmlns="http://www.w3.org/2000/svg" xmlns:xlink="http://www.w3.org/1999/xlink" x="0px" y="0px"
	 viewBox="0 0 16 16" enable-background="new 0 0 16 16" xml:space="preserve">
<path fill-rule="evenodd" clip-rule="evenodd" fill="#9BD6CD" d="M14,16H2c-1.1,0-2-0.9-2-2V2c0-1.1,0.9-2,2-2h12c1.1,0,2,0.9,2,2
	v12C16,15.1,15.1,16,14,16z M8,4.9c-1.2,0-2.3,0.7-2.8,1.8h0c0,0,0,0,0,0c0,0.1-0.1,0.1-0.1,0.2c0,0,0,0.1,0,0.1C5,7.1,5,7.2,5,7.2
	c0,0,0,0.1,0,0.1c0,0.1,0,0.2,0,0.2c0,0,0,0.1,0,0.1c0,0.1,0,0.2,0,0.3c0,1.7,1.4,3.1,3.1,3.1c1.7,0,3.1-1.4,3.1-3.1
	c0-0.1,0-0.2,0-0.3c0,0,0-0.1,0-0.1c0-0.1,0-0.2,0-0.2c0,0,0-0.1,0-0.1c0-0.1,0-0.1-0.1-0.2c0,0,0-0.1,0-0.1c0-0.1-0.1-0.1-0.1-0.2
	c0,0,0,0,0,0h0C10.3,5.6,9.2,4.9,8,4.9z M14.2,2.6c0-0.4-0.4-0.8-0.8-0.8h-1.6c-0.4,0-0.8,0.4-0.8,0.8v1.6C11,4.6,11.4,5,11.8,5h1.6
	c0.4,0,0.8-0.4,0.8-0.8V2.6z M14.2,6.7h-1.5c0.1,0.4,0.2,0.8,0.2,1.3c0,2.7-2.2,4.9-4.9,4.9S3.1,10.7,3.1,8c0-0.5,0.1-0.9,0.2-1.3
	H1.8v6.7c0,0.4,0.4,0.8,0.8,0.8h10.8c0.4,0,0.8-0.4,0.8-0.8V6.7z"/>
</svg>
