<?xml version="1.0" encoding="utf-8"?>
<!-- Generator: Adobe Illustrator 18.0.0, SVG Export Plug-In . SVG Version: 6.00 Build 0)  -->
<!DOCTYPE svg PUBLIC "-//W3C//DTD SVG 1.1//EN" "http://www.w3.org/Graphics/SVG/1.1/DTD/svg11.dtd">
<svg version="1.1" id="Слой_1" xmlns="http://www.w3.org/2000/svg" xmlns:xlink="http://www.w3.org/1999/xlink" x="0px" y="0px"
	 viewBox="0 0 16 13.8" enable-background="new 0 0 16 13.8" xml:space="preserve">
<path fill-rule="evenodd" clip-rule="evenodd" fill="#9BD6CD" d="M13.5,3.5v2.4h-1V3.5H10v-1h2.5V0h1v2.4H16v1H13.5z M6.6,1
	C7.5,1.5,8,2.3,8,3.3c0,0.9-0.5,1.6-1.2,2.1C6.1,5.9,5.9,6.2,5.9,6.6c0,0.4,0.7,1,1.1,1.3c1.1,0.8,1.4,1.5,1.4,2.7
	c0,1.5-1.4,3.2-4.1,3.2C2,13.8,0,12.6,0,11.1c0-1.5,1.9-3,4.2-3c0.3,0,0.5,0,0.7,0C4.6,7.8,4.4,7.4,4.4,7c0-0.3,0.1-0.6,0.2-0.8
	c-0.1,0-0.3,0-0.4,0C2.3,6.2,1,4.8,1,3.1C1,1.5,2.8,0,4.6,0c1.1,0,4.2,0,4.2,0L7.9,1H6.6z M4.7,8.5c-1.6,0-3.1,1-3.1,2.2
	c0,1.2,1.2,2.1,2.8,2.1c2.3,0,3.1-0.8,3.1-2c0-0.1,0-0.3-0.1-0.4c-0.2-0.7-0.8-1-1.7-1.6C5.4,8.6,5,8.5,4.7,8.5z M6.5,3.3
	C6.3,1.9,5.2,0.8,4.1,0.8c-1.1,0-1.8,1-1.6,2.4c0.2,1.4,1.2,2.6,2.3,2.6C5.9,5.8,6.7,4.7,6.5,3.3z"/>
</svg>
