<?xml version="1.0" encoding="utf-8"?>
<!-- Generator: Adobe Illustrator 18.0.0, SVG Export Plug-In . SVG Version: 6.00 Build 0)  -->
<!DOCTYPE svg PUBLIC "-//W3C//DTD SVG 1.1//EN" "http://www.w3.org/Graphics/SVG/1.1/DTD/svg11.dtd">
<svg version="1.1" id="Слой_1" xmlns="http://www.w3.org/2000/svg" xmlns:xlink="http://www.w3.org/1999/xlink" x="0px" y="0px"
	 viewBox="0 0 16 14.3" enable-background="new 0 0 16 14.3" xml:space="preserve">
<path fill-rule="evenodd" clip-rule="evenodd" fill="#9BD6CD" d="M8.4,12.2c-0.6,0-1.1-0.2-1.7-0.2c-2.2,2.8-5.6,2.2-5.6,2.2
	c2.4-1.2,2.4-3.1,2-3.3C1.2,9.8,0,8.1,0,6.1C0,2.7,3.7,0,8.4,0C13.1,0,16,2.7,16,6.1C16,9.5,13.1,12.2,8.4,12.2z M4.3,4.8
	c-0.8,0-1.5,0.7-1.5,1.5s0.7,1.5,1.5,1.5c0.8,0,1.5-0.7,1.5-1.5S5.1,4.8,4.3,4.8z M8,4.8c-0.8,0-1.5,0.7-1.5,1.5S7.2,7.8,8,7.8
	c0.8,0,1.5-0.7,1.5-1.5S8.8,4.8,8,4.8z M11.8,4.8c-0.8,0-1.5,0.7-1.5,1.5s0.7,1.5,1.5,1.5c0.8,0,1.5-0.7,1.5-1.5S12.6,4.8,11.8,4.8z
	"/>
</svg>
