<?xml version="1.0" encoding="utf-8"?>
<!-- Generator: Adobe Illustrator 18.0.0, SVG Export Plug-In . SVG Version: 6.00 Build 0)  -->
<!DOCTYPE svg PUBLIC "-//W3C//DTD SVG 1.1//EN" "http://www.w3.org/Graphics/SVG/1.1/DTD/svg11.dtd">
<svg version="1.1" id="Слой_1" xmlns="http://www.w3.org/2000/svg" xmlns:xlink="http://www.w3.org/1999/xlink" x="0px" y="0px"
	 viewBox="0 0 21 12" enable-background="new 0 0 21 12" xml:space="preserve">
<path fill-rule="evenodd" clip-rule="evenodd" fill="#CCCCCC" d="M18.4,11.5l-7.9-7.9l-8,8l0,0c-0.3,0.3-0.6,0.4-1,0.4
	C0.7,12,0,11.3,0,10.5c0-0.4,0.2-0.8,0.4-1h0l9-9l0,0C9.7,0.2,10.1,0,10.5,0c0,0,0,0,0,0c0,0,0,0,0,0c0.4,0,0.8,0.2,1.1,0.5l0,0l9,9
	l0,0c0.3,0.3,0.4,0.6,0.4,1c0,0.8-0.7,1.5-1.5,1.5C19,12,18.6,11.8,18.4,11.5z"/>
</svg>
