<?xml version="1.0" encoding="utf-8"?>
<!-- Generator: Adobe Illustrator 18.0.0, SVG Export Plug-In . SVG Version: 6.00 Build 0)  -->
<!DOCTYPE svg PUBLIC "-//W3C//DTD SVG 1.1//EN" "http://www.w3.org/Graphics/SVG/1.1/DTD/svg11.dtd">
<svg version="1.1" id="Слой_1" xmlns="http://www.w3.org/2000/svg" xmlns:xlink="http://www.w3.org/1999/xlink" x="0px" y="0px"
	 viewBox="0 0 10 16" enable-background="new 0 0 10 16" xml:space="preserve">
<path fill-rule="evenodd" clip-rule="evenodd" fill="#9BD6CD" d="M10,15.1c-0.7,0.3-1.3,0.5-1.8,0.7C7.6,15.9,7,16,6.4,16
	c-0.7,0-1.2-0.1-1.7-0.3c-0.6-0.2-1-0.5-1.4-0.8c-0.4-0.3-0.7-0.7-0.8-1.1c-0.2-0.4-0.2-0.9-0.2-1.7V6.6H0V4.3
	c0.6-0.2,1.4-0.5,1.8-0.9C2.2,3,2.6,2.6,2.9,2c0.3-0.5,0.5-1.2,0.6-2h2.3v3.7h3.7v2.9H5.7v4.1c0,0.9,0,1.5,0.1,1.7
	c0.1,0.3,0.3,0.5,0.6,0.7c0.4,0.2,0.8,0.3,1.2,0.3c0.8,0,1.6-0.3,2.4-0.8V15.1z"/>
</svg>
