<?xml version="1.0" encoding="utf-8"?>
<!-- Generator: Adobe Illustrator 18.0.0, SVG Export Plug-In . SVG Version: 6.00 Build 0)  -->
<!DOCTYPE svg PUBLIC "-//W3C//DTD SVG 1.1//EN" "http://www.w3.org/Graphics/SVG/1.1/DTD/svg11.dtd">
<svg version="1.1" id="Слой_1" xmlns="http://www.w3.org/2000/svg" xmlns:xlink="http://www.w3.org/1999/xlink" x="0px" y="0px"
	 viewBox="0 0 7.5 16" enable-background="new 0 0 7.5 16" xml:space="preserve">
<path fill-rule="evenodd" clip-rule="evenodd" fill="#9BD6CD" d="M7.5,0c0,0.9,0,2.6,0,2.6S5.6,2.4,5.1,3.1C4.9,3.5,5,4.7,5,5.5
	c0.8,0,1.7,0,2.5,0C7.3,6.5,7.1,7.2,7,8C6.3,8,5,8,5,8v8c0,0-2.4,0-3.5,0c0-2.5,0-5.3,0-8C0.9,8,0.5,8,0,8c0-0.9,0-1.6,0-2.5
	c0.5,0,0.9,0,1.5,0c0.1-1.8,0.1-3.7,1-4.6C3.5-0.1,4.5,0,7.5,0z"/>
</svg>
