<?xml version="1.0" encoding="utf-8"?>
<!-- Generator: Adobe Illustrator 16.0.0, SVG Export Plug-In . SVG Version: 6.00 Build 0)  -->
<!DOCTYPE svg PUBLIC "-//W3C//DTD SVG 1.1//EN" "http://www.w3.org/Graphics/SVG/1.1/DTD/svg11.dtd">
<svg version="1.1" id="Слой_1" xmlns="http://www.w3.org/2000/svg" xmlns:xlink="http://www.w3.org/1999/xlink" x="0px" y="0px"
	 width="17.6px" height="17.6px" viewBox="0 0 17.6 17.6" enable-background="new 0 0 17.6 17.6" xml:space="preserve">
<path fill-rule="evenodd" clip-rule="evenodd" fill="#FFFFFF" d="M17.116,14.782c0.299,0.3,0.483,0.712,0.483,1.167
	c0,0.912-0.738,1.65-1.649,1.65c-0.456,0-0.869-0.185-1.167-0.482l0,0l-4.836-4.836C8.965,12.861,7.823,13.2,6.6,13.2
	C2.955,13.2,0,10.245,0,6.6C0,2.955,2.955,0,6.6,0C10.245,0,13.2,2.955,13.2,6.6c0,1.224-0.339,2.365-0.92,3.348L17.116,14.782
	L17.116,14.782z M6.6,1.649c-2.733,0-4.95,2.216-4.95,4.95s2.217,4.95,4.95,4.95s4.95-2.216,4.95-4.95S9.333,1.649,6.6,1.649z"/>
</svg>
