<?xml version="1.0" encoding="utf-8"?>
<!-- Generator: Adobe Illustrator 18.0.0, SVG Export Plug-In . SVG Version: 6.00 Build 0)  -->
<!DOCTYPE svg PUBLIC "-//W3C//DTD SVG 1.1//EN" "http://www.w3.org/Graphics/SVG/1.1/DTD/svg11.dtd">
<svg version="1.1" id="Слой_1" xmlns="http://www.w3.org/2000/svg" xmlns:xlink="http://www.w3.org/1999/xlink" x="0px" y="0px"
	 viewBox="0 0 28 32" enable-background="new 0 0 28 32" xml:space="preserve">
<path fill-rule="evenodd" clip-rule="evenodd" fill="#9BD6CD" d="M26.5,16.5h-3c-0.8,0-1.5-0.7-1.5-1.5V9c0-0.8,0.7-1.5,1.5-1.5h3
	C27.3,7.5,28,8.2,28,9v6C28,15.8,27.3,16.5,26.5,16.5z M23.5,1.5C23.5,0.7,24.2,0,25,0c0.8,0,1.5,0.7,1.5,1.5V6h-3V1.5z M15.5,24.5
	h-3c-0.8,0-1.5-0.7-1.5-1.5v-6c0-0.8,0.7-1.5,1.5-1.5h3c0.8,0,1.5,0.7,1.5,1.5v6C17,23.8,16.3,24.5,15.5,24.5z M12.5,1.5
	C12.5,0.7,13.2,0,14,0c0.8,0,1.5,0.7,1.5,1.5V14h-3V1.5z M4.5,20.5h-3C0.7,20.5,0,19.8,0,19v-6c0-0.8,0.7-1.5,1.5-1.5h3
	C5.3,11.5,6,12.2,6,13v6C6,19.8,5.3,20.5,4.5,20.5z M1.5,1.5C1.5,0.7,2.2,0,3,0c0.8,0,1.5,0.7,1.5,1.5V10h-3V1.5z M4.5,30.5
	C4.5,31.3,3.8,32,3,32c-0.8,0-1.5-0.7-1.5-1.5V22h3V30.5z M15.5,30.5c0,0.8-0.7,1.5-1.5,1.5c-0.8,0-1.5-0.7-1.5-1.5V26h3V30.5z
	 M26.5,30.5c0,0.8-0.7,1.5-1.5,1.5c-0.8,0-1.5-0.7-1.5-1.5V18h3V30.5z"/>
</svg>
