<?xml version="1.0" encoding="utf-8"?>
<!-- Generator: Adobe Illustrator 16.0.0, SVG Export Plug-In . SVG Version: 6.00 Build 0)  -->
<!DOCTYPE svg PUBLIC "-//W3C//DTD SVG 1.1//EN" "http://www.w3.org/Graphics/SVG/1.1/DTD/svg11.dtd">
<svg version="1.1" id="Слой_1" xmlns="http://www.w3.org/2000/svg" xmlns:xlink="http://www.w3.org/1999/xlink" x="0px" y="0px"
	 width="32px" height="32px" viewBox="0 0 32 32" enable-background="new 0 0 32 32" xml:space="preserve">
<path fill-rule="evenodd" clip-rule="evenodd" fill="#9BD6CE" d="M30.5,32h-29C0.671,32,0,31.328,0,30.5v-29C0,0.672,0.671,0,1.5,0
	h29C31.328,0,32,0.672,32,1.5v29C32,31.328,31.328,32,30.5,32z M29,3H3v26h26V3z M5.215,16.239L5.215,16.239l4-2.501l0,0.001
	c0.229-0.141,0.497-0.222,0.785-0.222c0.312,0,0.601,0.095,0.84,0.257l0.006-0.009l6.63,4.42l7.639-5.391
	c0.248-0.182,0.554-0.289,0.885-0.289c0.828,0,1.5,0.671,1.5,1.499c0,0.501-0.245,0.943-0.621,1.216l0,0l-8.5,6v-0.001
	c-0.248,0.18-0.551,0.285-0.879,0.285c-0.321,0-0.618-0.102-0.861-0.273l-6.656-4.438l-3.136,1.961
	C6.606,18.92,6.314,19.018,6,19.018c-0.829,0-1.5-0.672-1.5-1.5C4.5,16.977,4.786,16.502,5.215,16.239z"/>
</svg>
