<?xml version="1.0" encoding="utf-8"?>
<!-- Generator: Adobe Illustrator 16.0.0, SVG Export Plug-In . SVG Version: 6.00 Build 0)  -->
<!DOCTYPE svg PUBLIC "-//W3C//DTD SVG 1.1//EN" "http://www.w3.org/Graphics/SVG/1.1/DTD/svg11.dtd">
<svg version="1.1" id="Слой_1" xmlns="http://www.w3.org/2000/svg" xmlns:xlink="http://www.w3.org/1999/xlink" x="0px" y="0px"
	 width="17.6px" height="14.026px" viewBox="0 0 17.6 14.026" enable-background="new 0 0 17.6 14.026" xml:space="preserve">
<path fill-rule="evenodd" clip-rule="evenodd" fill="#FFFFFF" d="M17.525,3.089h0.002l-2.476,5.5l0,0
	c-0.122,0.271-0.386,0.465-0.697,0.485l0,0L7.227,9.549l0.412,1.177h7.761c0.911,0,1.65,0.739,1.65,1.65s-0.739,1.65-1.65,1.65
	s-1.649-0.739-1.649-1.65h-7.7c0,0.911-0.738,1.65-1.65,1.65c-0.911,0-1.649-0.739-1.649-1.65s0.738-1.65,1.649-1.65h1.491
	L2.715,1.65h-1.89C0.369,1.65,0,1.281,0,0.826C0,0.37,0.369,0,0.825,0H3.3c0.359,0,0.663,0.232,0.775,0.555l0.003-0.001l0.48,1.372
	h12.216c0.456,0,0.825,0.369,0.825,0.825C17.6,2.872,17.572,2.985,17.525,3.089z M5.136,3.575l1.525,4.358l7.09-0.474l1.748-3.885
	H5.136z"/>
</svg>
