<?xml version="1.0" encoding="utf-8"?>
<!-- Generator: Adobe Illustrator 18.0.0, SVG Export Plug-In . SVG Version: 6.00 Build 0)  -->
<!DOCTYPE svg PUBLIC "-//W3C//DTD SVG 1.1//EN" "http://www.w3.org/Graphics/SVG/1.1/DTD/svg11.dtd">
<svg version="1.1" id="Слой_1" xmlns="http://www.w3.org/2000/svg" xmlns:xlink="http://www.w3.org/1999/xlink" x="0px" y="0px"
	 viewBox="0 0 25.6 20.8" enable-background="new 0 0 25.6 20.8" xml:space="preserve">
<path fill-rule="evenodd" clip-rule="evenodd" fill="#FFFFFF" d="M17.4,0c2,0,3.1,0.7,4.2,1.6c0.9-0.1,2-0.6,2.7-0.9
	c0.2-0.1,0.4-0.2,0.7-0.4c-0.4,1-0.9,1.8-1.7,2.5C23,3,22.8,3.2,22.6,3.3c0,0,0,0,0,0c1.1,0,2.1-0.5,3-0.8c0,0,0,0,0,0
	c-0.5,0.7-1.1,1.5-1.8,2C23.5,4.7,23.3,5,23,5.2c0,1.2,0,2.4-0.2,3.4c-1.3,5.9-4.8,9.9-10.3,11.6c-2,0.6-5.2,0.9-7.4,0.3
	c-1.1-0.3-2.1-0.6-3.1-1c-0.5-0.2-1-0.5-1.5-0.8c-0.2-0.1-0.3-0.2-0.5-0.3c0.5,0,1.1,0.2,1.7,0.1c0.5-0.1,1-0.1,1.5-0.2
	c1.2-0.3,2.2-0.6,3.2-1.1c0.4-0.3,1.1-0.6,1.4-0.9c-0.6,0-1.1-0.1-1.6-0.3c-1.7-0.6-2.7-1.7-3.3-3.4c0.5,0.1,2,0.2,2.3-0.1
	c-0.6,0-1.3-0.4-1.7-0.7C2.1,10.9,1,9.5,1,7.3c0.2,0.1,0.4,0.2,0.5,0.3c0.3,0.1,0.7,0.2,1.1,0.3c0.2,0,0.5,0.1,0.7,0.1c0,0,0,0,0,0
	c-0.3-0.3-0.7-0.5-1-0.8C1.5,6,0.7,4.3,1.2,2.3c0.1-0.5,0.3-1,0.6-1.4c0,0,0,0,0,0c0.1,0.2,0.3,0.4,0.5,0.5c0.4,0.6,1,1.1,1.6,1.5
	c1.9,1.5,3.6,2.4,6.4,3.1c0.7,0.2,1.5,0.3,2.4,0.3c-0.2-0.7-0.2-1.8,0-2.5c0.5-1.7,1.5-2.9,3-3.5c0.4-0.2,0.8-0.3,1.2-0.4
	C17,0.1,17.2,0,17.4,0z"/>
</svg>
