<?xml version="1.0" encoding="utf-8"?>
<!-- Generator: Adobe Illustrator 18.0.0, SVG Export Plug-In . SVG Version: 6.00 Build 0)  -->
<!DOCTYPE svg PUBLIC "-//W3C//DTD SVG 1.1//EN" "http://www.w3.org/Graphics/SVG/1.1/DTD/svg11.dtd">
<svg version="1.1" id="Слой_1" xmlns="http://www.w3.org/2000/svg" xmlns:xlink="http://www.w3.org/1999/xlink" x="0px" y="0px"
	 viewBox="0 0 595.3 841.9" enable-background="new 0 0 595.3 841.9" xml:space="preserve">
<path fill-rule="evenodd" clip-rule="evenodd" fill="#F38181" d="M298.5,433.3c0,0-9.6-10.7-9.6-16c0-5.3,4.3-9.6,9.6-9.6
	s9.6,4.3,9.6,9.6C308.1,422.6,298.5,433.3,298.5,433.3z M298.5,410.9c-3.5,0-6.4,2.9-6.4,6.4c0,3.5,2.9,6.4,6.4,6.4s6.4-2.9,6.4-6.4
	C304.9,413.8,302,410.9,298.5,410.9z M298.5,420.5c-1.8,0-3.2-1.4-3.2-3.2c0-1.8,1.4-3.2,3.2-3.2s3.2,1.4,3.2,3.2
	C301.7,419.1,300.3,420.5,298.5,420.5z"/>
</svg>
